<svg xmlns="http://www.w3.org/2000/svg" width="400" height="590" viewBox="0 0 400 590">
<g font-family="Helvetica, sans-serif" font-size="11" fill="#222">
<text x="40.0" y="14" font-weight="bold">B1 under M_z = 200 kN.m</text>
<path d="M 40.00,540.00 L 360.00,540.00 L 360.00,60.00 L 40.00,60.00 Z" fill="white" stroke="#1f4f73" stroke-width="1.5"/>
<rect x="44.51" y="512.51" width="30.98" height="30.98" fill="#8b0000" fill-opacity="0.7" stroke="none"/>
<rect x="84.51" y="512.51" width="30.98" height="30.98" fill="#8b0000" fill-opacity="0.7" stroke="none"/>
<rect x="124.51" y="512.51" width="30.98" height="30.98" fill="#8b0000" fill-opacity="0.7" stroke="none"/>
<rect x="164.51" y="512.51" width="30.98" height="30.98" fill="#8b0000" fill-opacity="0.7" stroke="none"/>
<rect x="204.51" y="512.51" width="30.98" height="30.98" fill="#8b0000" fill-opacity="0.7" stroke="none"/>
<rect x="244.51" y="512.51" width="30.98" height="30.98" fill="#8b0000" fill-opacity="0.7" stroke="none"/>
<rect x="284.51" y="512.51" width="30.98" height="30.98" fill="#8b0000" fill-opacity="0.7" stroke="none"/>
<rect x="324.51" y="512.51" width="30.98" height="30.98" fill="#8b0000" fill-opacity="0.7" stroke="none"/>
<rect x="44.51" y="488.51" width="30.98" height="30.98" fill="#8b0000" fill-opacity="0.7" stroke="none"/>
<rect x="84.51" y="488.51" width="30.98" height="30.98" fill="#8b0000" fill-opacity="0.7" stroke="none"/>
<rect x="124.51" y="488.51" width="30.98" height="30.98" fill="#8b0000" fill-opacity="0.7" stroke="none"/>
<rect x="164.51" y="488.51" width="30.98" height="30.98" fill="#8b0000" fill-opacity="0.7" stroke="none"/>
<rect x="204.51" y="488.51" width="30.98" height="30.98" fill="#8b0000" fill-opacity="0.7" stroke="none"/>
<rect x="244.51" y="488.51" width="30.98" height="30.98" fill="#8b0000" fill-opacity="0.7" stroke="none"/>
<rect x="284.51" y="488.51" width="30.98" height="30.98" fill="#8b0000" fill-opacity="0.7" stroke="none"/>
<rect x="324.51" y="488.51" width="30.98" height="30.98" fill="#8b0000" fill-opacity="0.7" stroke="none"/>
<rect x="44.51" y="464.51" width="30.98" height="30.98" fill="#8b0000" fill-opacity="0.7" stroke="none"/>
<rect x="84.51" y="464.51" width="30.98" height="30.98" fill="#8b0000" fill-opacity="0.7" stroke="none"/>
<rect x="124.51" y="464.51" width="30.98" height="30.98" fill="#8b0000" fill-opacity="0.7" stroke="none"/>
<rect x="164.51" y="464.51" width="30.98" height="30.98" fill="#8b0000" fill-opacity="0.7" stroke="none"/>
<rect x="204.51" y="464.51" width="30.98" height="30.98" fill="#8b0000" fill-opacity="0.7" stroke="none"/>
<rect x="244.51" y="464.51" width="30.98" height="30.98" fill="#8b0000" fill-opacity="0.7" stroke="none"/>
<rect x="284.51" y="464.51" width="30.98" height="30.98" fill="#8b0000" fill-opacity="0.7" stroke="none"/>
<rect x="324.51" y="464.51" width="30.98" height="30.98" fill="#8b0000" fill-opacity="0.7" stroke="none"/>
<rect x="44.51" y="440.51" width="30.98" height="30.98" fill="#8b0000" fill-opacity="0.7" stroke="none"/>
<rect x="84.51" y="440.51" width="30.98" height="30.98" fill="#8b0000" fill-opacity="0.7" stroke="none"/>
<rect x="124.51" y="440.51" width="30.98" height="30.98" fill="#8b0000" fill-opacity="0.7" stroke="none"/>
<rect x="164.51" y="440.51" width="30.98" height="30.98" fill="#8b0000" fill-opacity="0.7" stroke="none"/>
<rect x="204.51" y="440.51" width="30.98" height="30.98" fill="#8b0000" fill-opacity="0.7" stroke="none"/>
<rect x="244.51" y="440.51" width="30.98" height="30.98" fill="#8b0000" fill-opacity="0.7" stroke="none"/>
<rect x="284.51" y="440.51" width="30.98" height="30.98" fill="#8b0000" fill-opacity="0.7" stroke="none"/>
<rect x="324.51" y="440.51" width="30.98" height="30.98" fill="#8b0000" fill-opacity="0.7" stroke="none"/>
<rect x="44.51" y="416.51" width="30.98" height="30.98" fill="#8b0000" fill-opacity="0.7" stroke="none"/>
<rect x="84.51" y="416.51" width="30.98" height="30.98" fill="#8b0000" fill-opacity="0.7" stroke="none"/>
<rect x="124.51" y="416.51" width="30.98" height="30.98" fill="#8b0000" fill-opacity="0.7" stroke="none"/>
<rect x="164.51" y="416.51" width="30.98" height="30.98" fill="#8b0000" fill-opacity="0.7" stroke="none"/>
<rect x="204.51" y="416.51" width="30.98" height="30.98" fill="#8b0000" fill-opacity="0.7" stroke="none"/>
<rect x="244.51" y="416.51" width="30.98" height="30.98" fill="#8b0000" fill-opacity="0.7" stroke="none"/>
<rect x="284.51" y="416.51" width="30.98" height="30.98" fill="#8b0000" fill-opacity="0.7" stroke="none"/>
<rect x="324.51" y="416.51" width="30.98" height="30.98" fill="#8b0000" fill-opacity="0.7" stroke="none"/>
<rect x="44.51" y="392.51" width="30.98" height="30.98" fill="#8b0000" fill-opacity="0.7" stroke="none"/>
<rect x="84.51" y="392.51" width="30.98" height="30.98" fill="#8b0000" fill-opacity="0.7" stroke="none"/>
<rect x="124.51" y="392.51" width="30.98" height="30.98" fill="#8b0000" fill-opacity="0.7" stroke="none"/>
<rect x="164.51" y="392.51" width="30.98" height="30.98" fill="#8b0000" fill-opacity="0.7" stroke="none"/>
<rect x="204.51" y="392.51" width="30.98" height="30.98" fill="#8b0000" fill-opacity="0.7" stroke="none"/>
<rect x="244.51" y="392.51" width="30.98" height="30.98" fill="#8b0000" fill-opacity="0.7" stroke="none"/>
<rect x="284.51" y="392.51" width="30.98" height="30.98" fill="#8b0000" fill-opacity="0.7" stroke="none"/>
<rect x="324.51" y="392.51" width="30.98" height="30.98" fill="#8b0000" fill-opacity="0.7" stroke="none"/>
<rect x="44.51" y="368.51" width="30.98" height="30.98" fill="#8b0000" fill-opacity="0.7" stroke="none"/>
<rect x="84.51" y="368.51" width="30.98" height="30.98" fill="#8b0000" fill-opacity="0.7" stroke="none"/>
<rect x="124.51" y="368.51" width="30.98" height="30.98" fill="#8b0000" fill-opacity="0.7" stroke="none"/>
<rect x="164.51" y="368.51" width="30.98" height="30.98" fill="#8b0000" fill-opacity="0.7" stroke="none"/>
<rect x="204.51" y="368.51" width="30.98" height="30.98" fill="#8b0000" fill-opacity="0.7" stroke="none"/>
<rect x="244.51" y="368.51" width="30.98" height="30.98" fill="#8b0000" fill-opacity="0.7" stroke="none"/>
<rect x="284.51" y="368.51" width="30.98" height="30.98" fill="#8b0000" fill-opacity="0.7" stroke="none"/>
<rect x="324.51" y="368.51" width="30.98" height="30.98" fill="#8b0000" fill-opacity="0.7" stroke="none"/>
<rect x="44.51" y="344.51" width="30.98" height="30.98" fill="#8b0000" fill-opacity="0.7" stroke="none"/>
<rect x="84.51" y="344.51" width="30.98" height="30.98" fill="#8b0000" fill-opacity="0.7" stroke="none"/>
<rect x="124.51" y="344.51" width="30.98" height="30.98" fill="#8b0000" fill-opacity="0.7" stroke="none"/>
<rect x="164.51" y="344.51" width="30.98" height="30.98" fill="#8b0000" fill-opacity="0.7" stroke="none"/>
<rect x="204.51" y="344.51" width="30.98" height="30.98" fill="#8b0000" fill-opacity="0.7" stroke="none"/>
<rect x="244.51" y="344.51" width="30.98" height="30.98" fill="#8b0000" fill-opacity="0.7" stroke="none"/>
<rect x="284.51" y="344.51" width="30.98" height="30.98" fill="#8b0000" fill-opacity="0.7" stroke="none"/>
<rect x="324.51" y="344.51" width="30.98" height="30.98" fill="#8b0000" fill-opacity="0.7" stroke="none"/>
<rect x="44.51" y="320.51" width="30.98" height="30.98" fill="#8b0000" fill-opacity="0.7" stroke="none"/>
<rect x="84.51" y="320.51" width="30.98" height="30.98" fill="#8b0000" fill-opacity="0.7" stroke="none"/>
<rect x="124.51" y="320.51" width="30.98" height="30.98" fill="#8b0000" fill-opacity="0.7" stroke="none"/>
<rect x="164.51" y="320.51" width="30.98" height="30.98" fill="#8b0000" fill-opacity="0.7" stroke="none"/>
<rect x="204.51" y="320.51" width="30.98" height="30.98" fill="#8b0000" fill-opacity="0.7" stroke="none"/>
<rect x="244.51" y="320.51" width="30.98" height="30.98" fill="#8b0000" fill-opacity="0.7" stroke="none"/>
<rect x="284.51" y="320.51" width="30.98" height="30.98" fill="#8b0000" fill-opacity="0.7" stroke="none"/>
<rect x="324.51" y="320.51" width="30.98" height="30.98" fill="#8b0000" fill-opacity="0.7" stroke="none"/>
<rect x="44.51" y="296.51" width="30.98" height="30.98" fill="#8b0000" fill-opacity="0.7" stroke="none"/>
<rect x="84.51" y="296.51" width="30.98" height="30.98" fill="#8b0000" fill-opacity="0.7" stroke="none"/>
<rect x="124.51" y="296.51" width="30.98" height="30.98" fill="#8b0000" fill-opacity="0.7" stroke="none"/>
<rect x="164.51" y="296.51" width="30.98" height="30.98" fill="#8b0000" fill-opacity="0.7" stroke="none"/>
<rect x="204.51" y="296.51" width="30.98" height="30.98" fill="#8b0000" fill-opacity="0.7" stroke="none"/>
<rect x="244.51" y="296.51" width="30.98" height="30.98" fill="#8b0000" fill-opacity="0.7" stroke="none"/>
<rect x="284.51" y="296.51" width="30.98" height="30.98" fill="#8b0000" fill-opacity="0.7" stroke="none"/>
<rect x="324.51" y="296.51" width="30.98" height="30.98" fill="#8b0000" fill-opacity="0.7" stroke="none"/>
<rect x="44.51" y="272.51" width="30.98" height="30.98" fill="#8b0000" fill-opacity="0.7" stroke="none"/>
<rect x="84.51" y="272.51" width="30.98" height="30.98" fill="#8b0000" fill-opacity="0.7" stroke="none"/>
<rect x="124.51" y="272.51" width="30.98" height="30.98" fill="#8b0000" fill-opacity="0.7" stroke="none"/>
<rect x="164.51" y="272.51" width="30.98" height="30.98" fill="#8b0000" fill-opacity="0.7" stroke="none"/>
<rect x="204.51" y="272.51" width="30.98" height="30.98" fill="#8b0000" fill-opacity="0.7" stroke="none"/>
<rect x="244.51" y="272.51" width="30.98" height="30.98" fill="#8b0000" fill-opacity="0.7" stroke="none"/>
<rect x="284.51" y="272.51" width="30.98" height="30.98" fill="#8b0000" fill-opacity="0.7" stroke="none"/>
<rect x="324.51" y="272.51" width="30.98" height="30.98" fill="#8b0000" fill-opacity="0.7" stroke="none"/>
<rect x="44.51" y="248.51" width="30.98" height="30.98" fill="#8b0000" fill-opacity="0.7" stroke="none"/>
<rect x="84.51" y="248.51" width="30.98" height="30.98" fill="#8b0000" fill-opacity="0.7" stroke="none"/>
<rect x="124.51" y="248.51" width="30.98" height="30.98" fill="#8b0000" fill-opacity="0.7" stroke="none"/>
<rect x="164.51" y="248.51" width="30.98" height="30.98" fill="#8b0000" fill-opacity="0.7" stroke="none"/>
<rect x="204.51" y="248.51" width="30.98" height="30.98" fill="#8b0000" fill-opacity="0.7" stroke="none"/>
<rect x="244.51" y="248.51" width="30.98" height="30.98" fill="#8b0000" fill-opacity="0.7" stroke="none"/>
<rect x="284.51" y="248.51" width="30.98" height="30.98" fill="#8b0000" fill-opacity="0.7" stroke="none"/>
<rect x="324.51" y="248.51" width="30.98" height="30.98" fill="#8b0000" fill-opacity="0.7" stroke="none"/>
<rect x="44.51" y="224.51" width="30.98" height="30.98" fill="#8b0000" fill-opacity="0.7" stroke="none"/>
<rect x="84.51" y="224.51" width="30.98" height="30.98" fill="#8b0000" fill-opacity="0.7" stroke="none"/>
<rect x="124.51" y="224.51" width="30.98" height="30.98" fill="#8b0000" fill-opacity="0.7" stroke="none"/>
<rect x="164.51" y="224.51" width="30.98" height="30.98" fill="#8b0000" fill-opacity="0.7" stroke="none"/>
<rect x="204.51" y="224.51" width="30.98" height="30.98" fill="#8b0000" fill-opacity="0.7" stroke="none"/>
<rect x="244.51" y="224.51" width="30.98" height="30.98" fill="#8b0000" fill-opacity="0.7" stroke="none"/>
<rect x="284.51" y="224.51" width="30.98" height="30.98" fill="#8b0000" fill-opacity="0.7" stroke="none"/>
<rect x="324.51" y="224.51" width="30.98" height="30.98" fill="#8b0000" fill-opacity="0.7" stroke="none"/>
<rect x="44.51" y="200.51" width="30.98" height="30.98" fill="#8b0000" fill-opacity="0.7" stroke="none"/>
<rect x="84.51" y="200.51" width="30.98" height="30.98" fill="#8b0000" fill-opacity="0.7" stroke="none"/>
<rect x="124.51" y="200.51" width="30.98" height="30.98" fill="#8b0000" fill-opacity="0.7" stroke="none"/>
<rect x="164.51" y="200.51" width="30.98" height="30.98" fill="#8b0000" fill-opacity="0.7" stroke="none"/>
<rect x="204.51" y="200.51" width="30.98" height="30.98" fill="#8b0000" fill-opacity="0.7" stroke="none"/>
<rect x="244.51" y="200.51" width="30.98" height="30.98" fill="#8b0000" fill-opacity="0.7" stroke="none"/>
<rect x="284.51" y="200.51" width="30.98" height="30.98" fill="#8b0000" fill-opacity="0.7" stroke="none"/>
<rect x="324.51" y="200.51" width="30.98" height="30.98" fill="#8b0000" fill-opacity="0.7" stroke="none"/>
<rect x="44.51" y="176.51" width="30.98" height="30.98" fill="#fdb863" fill-opacity="0.7" stroke="none"/>
<rect x="84.51" y="176.51" width="30.98" height="30.98" fill="#fdb863" fill-opacity="0.7" stroke="none"/>
<rect x="124.51" y="176.51" width="30.98" height="30.98" fill="#fdb863" fill-opacity="0.7" stroke="none"/>
<rect x="164.51" y="176.51" width="30.98" height="30.98" fill="#fdb863" fill-opacity="0.7" stroke="none"/>
<rect x="204.51" y="176.51" width="30.98" height="30.98" fill="#fdb863" fill-opacity="0.7" stroke="none"/>
<rect x="244.51" y="176.51" width="30.98" height="30.98" fill="#fdb863" fill-opacity="0.7" stroke="none"/>
<rect x="284.51" y="176.51" width="30.98" height="30.98" fill="#fdb863" fill-opacity="0.7" stroke="none"/>
<rect x="324.51" y="176.51" width="30.98" height="30.98" fill="#fdb863" fill-opacity="0.7" stroke="none"/>
<rect x="44.51" y="152.51" width="30.98" height="30.98" fill="#c5e0fc" fill-opacity="0.7" stroke="none"/>
<rect x="84.51" y="152.51" width="30.98" height="30.98" fill="#c5e0fc" fill-opacity="0.7" stroke="none"/>
<rect x="124.51" y="152.51" width="30.98" height="30.98" fill="#c5e0fc" fill-opacity="0.7" stroke="none"/>
<rect x="164.51" y="152.51" width="30.98" height="30.98" fill="#c5e0fc" fill-opacity="0.7" stroke="none"/>
<rect x="204.51" y="152.51" width="30.98" height="30.98" fill="#c5e0fc" fill-opacity="0.7" stroke="none"/>
<rect x="244.51" y="152.51" width="30.98" height="30.98" fill="#c5e0fc" fill-opacity="0.7" stroke="none"/>
<rect x="284.51" y="152.51" width="30.98" height="30.98" fill="#c5e0fc" fill-opacity="0.7" stroke="none"/>
<rect x="324.51" y="152.51" width="30.98" height="30.98" fill="#c5e0fc" fill-opacity="0.7" stroke="none"/>
<rect x="44.51" y="128.51" width="30.98" height="30.98" fill="#a7c9f2" fill-opacity="0.7" stroke="none"/>
<rect x="84.51" y="128.51" width="30.98" height="30.98" fill="#a7c9f2" fill-opacity="0.7" stroke="none"/>
<rect x="124.51" y="128.51" width="30.98" height="30.98" fill="#a7c9f2" fill-opacity="0.7" stroke="none"/>
<rect x="164.51" y="128.51" width="30.98" height="30.98" fill="#a7c9f2" fill-opacity="0.7" stroke="none"/>
<rect x="204.51" y="128.51" width="30.98" height="30.98" fill="#a7c9f2" fill-opacity="0.7" stroke="none"/>
<rect x="244.51" y="128.51" width="30.98" height="30.98" fill="#a7c9f2" fill-opacity="0.7" stroke="none"/>
<rect x="284.51" y="128.51" width="30.98" height="30.98" fill="#a7c9f2" fill-opacity="0.7" stroke="none"/>
<rect x="324.51" y="128.51" width="30.98" height="30.98" fill="#a7c9f2" fill-opacity="0.7" stroke="none"/>
<rect x="44.51" y="104.51" width="30.98" height="30.98" fill="#89b2e9" fill-opacity="0.7" stroke="none"/>
<rect x="84.51" y="104.51" width="30.98" height="30.98" fill="#89b2e9" fill-opacity="0.7" stroke="none"/>
<rect x="124.51" y="104.51" width="30.98" height="30.98" fill="#89b2e9" fill-opacity="0.7" stroke="none"/>
<rect x="164.51" y="104.51" width="30.98" height="30.98" fill="#89b2e9" fill-opacity="0.7" stroke="none"/>
<rect x="204.51" y="104.51" width="30.98" height="30.98" fill="#89b2e9" fill-opacity="0.7" stroke="none"/>
<rect x="244.51" y="104.51" width="30.98" height="30.98" fill="#89b2e9" fill-opacity="0.7" stroke="none"/>
<rect x="284.51" y="104.51" width="30.98" height="30.98" fill="#89b2e9" fill-opacity="0.7" stroke="none"/>
<rect x="324.51" y="104.51" width="30.98" height="30.98" fill="#89b2e9" fill-opacity="0.7" stroke="none"/>
<rect x="44.51" y="80.51" width="30.98" height="30.98" fill="#6b9be0" fill-opacity="0.7" stroke="none"/>
<rect x="84.51" y="80.51" width="30.98" height="30.98" fill="#6b9be0" fill-opacity="0.7" stroke="none"/>
<rect x="124.51" y="80.51" width="30.98" height="30.98" fill="#6b9be0" fill-opacity="0.7" stroke="none"/>
<rect x="164.51" y="80.51" width="30.98" height="30.98" fill="#6b9be0" fill-opacity="0.7" stroke="none"/>
<rect x="204.51" y="80.51" width="30.98" height="30.98" fill="#6b9be0" fill-opacity="0.7" stroke="none"/>
<rect x="244.51" y="80.51" width="30.98" height="30.98" fill="#6b9be0" fill-opacity="0.7" stroke="none"/>
<rect x="284.51" y="80.51" width="30.98" height="30.98" fill="#6b9be0" fill-opacity="0.7" stroke="none"/>
<rect x="324.51" y="80.51" width="30.98" height="30.98" fill="#6b9be0" fill-opacity="0.7" stroke="none"/>
<rect x="44.51" y="56.51" width="30.98" height="30.98" fill="#4d84d7" fill-opacity="0.7" stroke="none"/>
<rect x="84.51" y="56.51" width="30.98" height="30.98" fill="#4d84d7" fill-opacity="0.7" stroke="none"/>
<rect x="124.51" y="56.51" width="30.98" height="30.98" fill="#4d84d7" fill-opacity="0.7" stroke="none"/>
<rect x="164.51" y="56.51" width="30.98" height="30.98" fill="#4d84d7" fill-opacity="0.7" stroke="none"/>
<rect x="204.51" y="56.51" width="30.98" height="30.98" fill="#4d84d7" fill-opacity="0.7" stroke="none"/>
<rect x="244.51" y="56.51" width="30.98" height="30.98" fill="#4d84d7" fill-opacity="0.7" stroke="none"/>
<rect x="284.51" y="56.51" width="30.98" height="30.98" fill="#4d84d7" fill-opacity="0.7" stroke="none"/>
<rect x="324.51" y="56.51" width="30.98" height="30.98" fill="#4d84d7" fill-opacity="0.7" stroke="none"/>
<circle cx="72.00" cy="508.00" r="10.19" fill="#0a8030" stroke="#000" stroke-width="0.5"/>
<circle cx="200.00" cy="508.00" r="10.19" fill="#0a8030" stroke="#000" stroke-width="0.5"/>
<circle cx="328.00" cy="508.00" r="10.19" fill="#0a8030" stroke="#000" stroke-width="0.5"/>
<circle cx="72.00" cy="92.00" r="7.62" fill="#0a5080" stroke="#000" stroke-width="0.5"/>
<circle cx="328.00" cy="92.00" r="7.62" fill="#0a5080" stroke="#000" stroke-width="0.5"/>
<text x="40.0" y="584.0" font-size="10" fill="#900">112 concrete fibers cracked (eps &gt; 0.15e-3)</text>
</g></svg>