<svg xmlns="http://www.w3.org/2000/svg" width="400" height="750" viewBox="0 0 400 750">
<g font-family="Helvetica, sans-serif" font-size="11" fill="#222">
<text x="40.0" y="14" font-weight="bold">low M: P=0, Mz=50, My=0 kN.m</text>
<path d="M 40.00,700.00 L 360.00,700.00 L 360.00,60.00 L 40.00,60.00 Z" fill="white" stroke="#1f4f73" stroke-width="1.5"/>
<rect x="46.01" y="663.34" width="41.31" height="41.31" fill="#8b0000" fill-opacity="0.7" stroke="none"/>
<rect x="99.34" y="663.34" width="41.31" height="41.31" fill="#8b0000" fill-opacity="0.7" stroke="none"/>
<rect x="152.68" y="663.34" width="41.31" height="41.31" fill="#8b0000" fill-opacity="0.7" stroke="none"/>
<rect x="206.01" y="663.34" width="41.31" height="41.31" fill="#8b0000" fill-opacity="0.7" stroke="none"/>
<rect x="259.34" y="663.34" width="41.31" height="41.31" fill="#8b0000" fill-opacity="0.7" stroke="none"/>
<rect x="312.68" y="663.34" width="41.31" height="41.31" fill="#8b0000" fill-opacity="0.7" stroke="none"/>
<rect x="46.01" y="631.34" width="41.31" height="41.31" fill="#8b0000" fill-opacity="0.7" stroke="none"/>
<rect x="99.34" y="631.34" width="41.31" height="41.31" fill="#8b0000" fill-opacity="0.7" stroke="none"/>
<rect x="152.68" y="631.34" width="41.31" height="41.31" fill="#8b0000" fill-opacity="0.7" stroke="none"/>
<rect x="206.01" y="631.34" width="41.31" height="41.31" fill="#8b0000" fill-opacity="0.7" stroke="none"/>
<rect x="259.34" y="631.34" width="41.31" height="41.31" fill="#8b0000" fill-opacity="0.7" stroke="none"/>
<rect x="312.68" y="631.34" width="41.31" height="41.31" fill="#8b0000" fill-opacity="0.7" stroke="none"/>
<rect x="46.01" y="599.34" width="41.31" height="41.31" fill="#8b0000" fill-opacity="0.7" stroke="none"/>
<rect x="99.34" y="599.34" width="41.31" height="41.31" fill="#8b0000" fill-opacity="0.7" stroke="none"/>
<rect x="152.68" y="599.34" width="41.31" height="41.31" fill="#8b0000" fill-opacity="0.7" stroke="none"/>
<rect x="206.01" y="599.34" width="41.31" height="41.31" fill="#8b0000" fill-opacity="0.7" stroke="none"/>
<rect x="259.34" y="599.34" width="41.31" height="41.31" fill="#8b0000" fill-opacity="0.7" stroke="none"/>
<rect x="312.68" y="599.34" width="41.31" height="41.31" fill="#8b0000" fill-opacity="0.7" stroke="none"/>
<rect x="46.01" y="567.34" width="41.31" height="41.31" fill="#8b0000" fill-opacity="0.7" stroke="none"/>
<rect x="99.34" y="567.34" width="41.31" height="41.31" fill="#8b0000" fill-opacity="0.7" stroke="none"/>
<rect x="152.68" y="567.34" width="41.31" height="41.31" fill="#8b0000" fill-opacity="0.7" stroke="none"/>
<rect x="206.01" y="567.34" width="41.31" height="41.31" fill="#8b0000" fill-opacity="0.7" stroke="none"/>
<rect x="259.34" y="567.34" width="41.31" height="41.31" fill="#8b0000" fill-opacity="0.7" stroke="none"/>
<rect x="312.68" y="567.34" width="41.31" height="41.31" fill="#8b0000" fill-opacity="0.7" stroke="none"/>
<rect x="46.01" y="535.34" width="41.31" height="41.31" fill="#8b0000" fill-opacity="0.7" stroke="none"/>
<rect x="99.34" y="535.34" width="41.31" height="41.31" fill="#8b0000" fill-opacity="0.7" stroke="none"/>
<rect x="152.68" y="535.34" width="41.31" height="41.31" fill="#8b0000" fill-opacity="0.7" stroke="none"/>
<rect x="206.01" y="535.34" width="41.31" height="41.31" fill="#8b0000" fill-opacity="0.7" stroke="none"/>
<rect x="259.34" y="535.34" width="41.31" height="41.31" fill="#8b0000" fill-opacity="0.7" stroke="none"/>
<rect x="312.68" y="535.34" width="41.31" height="41.31" fill="#8b0000" fill-opacity="0.7" stroke="none"/>
<rect x="46.01" y="503.34" width="41.31" height="41.31" fill="#8b0000" fill-opacity="0.7" stroke="none"/>
<rect x="99.34" y="503.34" width="41.31" height="41.31" fill="#8b0000" fill-opacity="0.7" stroke="none"/>
<rect x="152.68" y="503.34" width="41.31" height="41.31" fill="#8b0000" fill-opacity="0.7" stroke="none"/>
<rect x="206.01" y="503.34" width="41.31" height="41.31" fill="#8b0000" fill-opacity="0.7" stroke="none"/>
<rect x="259.34" y="503.34" width="41.31" height="41.31" fill="#8b0000" fill-opacity="0.7" stroke="none"/>
<rect x="312.68" y="503.34" width="41.31" height="41.31" fill="#8b0000" fill-opacity="0.7" stroke="none"/>
<rect x="46.01" y="471.34" width="41.31" height="41.31" fill="#8b0000" fill-opacity="0.7" stroke="none"/>
<rect x="99.34" y="471.34" width="41.31" height="41.31" fill="#8b0000" fill-opacity="0.7" stroke="none"/>
<rect x="152.68" y="471.34" width="41.31" height="41.31" fill="#8b0000" fill-opacity="0.7" stroke="none"/>
<rect x="206.01" y="471.34" width="41.31" height="41.31" fill="#8b0000" fill-opacity="0.7" stroke="none"/>
<rect x="259.34" y="471.34" width="41.31" height="41.31" fill="#8b0000" fill-opacity="0.7" stroke="none"/>
<rect x="312.68" y="471.34" width="41.31" height="41.31" fill="#8b0000" fill-opacity="0.7" stroke="none"/>
<rect x="46.01" y="439.34" width="41.31" height="41.31" fill="#8b0000" fill-opacity="0.7" stroke="none"/>
<rect x="99.34" y="439.34" width="41.31" height="41.31" fill="#8b0000" fill-opacity="0.7" stroke="none"/>
<rect x="152.68" y="439.34" width="41.31" height="41.31" fill="#8b0000" fill-opacity="0.7" stroke="none"/>
<rect x="206.01" y="439.34" width="41.31" height="41.31" fill="#8b0000" fill-opacity="0.7" stroke="none"/>
<rect x="259.34" y="439.34" width="41.31" height="41.31" fill="#8b0000" fill-opacity="0.7" stroke="none"/>
<rect x="312.68" y="439.34" width="41.31" height="41.31" fill="#8b0000" fill-opacity="0.7" stroke="none"/>
<rect x="46.01" y="407.34" width="41.31" height="41.31" fill="#fdb863" fill-opacity="0.7" stroke="none"/>
<rect x="99.34" y="407.34" width="41.31" height="41.31" fill="#fdb863" fill-opacity="0.7" stroke="none"/>
<rect x="152.68" y="407.34" width="41.31" height="41.31" fill="#fdb863" fill-opacity="0.7" stroke="none"/>
<rect x="206.01" y="407.34" width="41.31" height="41.31" fill="#fdb863" fill-opacity="0.7" stroke="none"/>
<rect x="259.34" y="407.34" width="41.31" height="41.31" fill="#fdb863" fill-opacity="0.7" stroke="none"/>
<rect x="312.68" y="407.34" width="41.31" height="41.31" fill="#fdb863" fill-opacity="0.7" stroke="none"/>
<rect x="46.01" y="375.34" width="41.31" height="41.31" fill="#fdb863" fill-opacity="0.7" stroke="none"/>
<rect x="99.34" y="375.34" width="41.31" height="41.31" fill="#fdb863" fill-opacity="0.7" stroke="none"/>
<rect x="152.68" y="375.34" width="41.31" height="41.31" fill="#fdb863" fill-opacity="0.7" stroke="none"/>
<rect x="206.01" y="375.34" width="41.31" height="41.31" fill="#fdb863" fill-opacity="0.7" stroke="none"/>
<rect x="259.34" y="375.34" width="41.31" height="41.31" fill="#fdb863" fill-opacity="0.7" stroke="none"/>
<rect x="312.68" y="375.34" width="41.31" height="41.31" fill="#fdb863" fill-opacity="0.7" stroke="none"/>
<rect x="46.01" y="343.34" width="41.31" height="41.31" fill="#fdb863" fill-opacity="0.7" stroke="none"/>
<rect x="99.34" y="343.34" width="41.31" height="41.31" fill="#fdb863" fill-opacity="0.7" stroke="none"/>
<rect x="152.68" y="343.34" width="41.31" height="41.31" fill="#fdb863" fill-opacity="0.7" stroke="none"/>
<rect x="206.01" y="343.34" width="41.31" height="41.31" fill="#fdb863" fill-opacity="0.7" stroke="none"/>
<rect x="259.34" y="343.34" width="41.31" height="41.31" fill="#fdb863" fill-opacity="0.7" stroke="none"/>
<rect x="312.68" y="343.34" width="41.31" height="41.31" fill="#fdb863" fill-opacity="0.7" stroke="none"/>
<rect x="46.01" y="311.34" width="41.31" height="41.31" fill="#fdb863" fill-opacity="0.7" stroke="none"/>
<rect x="99.34" y="311.34" width="41.31" height="41.31" fill="#fdb863" fill-opacity="0.7" stroke="none"/>
<rect x="152.68" y="311.34" width="41.31" height="41.31" fill="#fdb863" fill-opacity="0.7" stroke="none"/>
<rect x="206.01" y="311.34" width="41.31" height="41.31" fill="#fdb863" fill-opacity="0.7" stroke="none"/>
<rect x="259.34" y="311.34" width="41.31" height="41.31" fill="#fdb863" fill-opacity="0.7" stroke="none"/>
<rect x="312.68" y="311.34" width="41.31" height="41.31" fill="#fdb863" fill-opacity="0.7" stroke="none"/>
<rect x="46.01" y="279.34" width="41.31" height="41.31" fill="#fdb863" fill-opacity="0.7" stroke="none"/>
<rect x="99.34" y="279.34" width="41.31" height="41.31" fill="#fdb863" fill-opacity="0.7" stroke="none"/>
<rect x="152.68" y="279.34" width="41.31" height="41.31" fill="#fdb863" fill-opacity="0.7" stroke="none"/>
<rect x="206.01" y="279.34" width="41.31" height="41.31" fill="#fdb863" fill-opacity="0.7" stroke="none"/>
<rect x="259.34" y="279.34" width="41.31" height="41.31" fill="#fdb863" fill-opacity="0.7" stroke="none"/>
<rect x="312.68" y="279.34" width="41.31" height="41.31" fill="#fdb863" fill-opacity="0.7" stroke="none"/>
<rect x="46.01" y="247.34" width="41.31" height="41.31" fill="#fdb863" fill-opacity="0.7" stroke="none"/>
<rect x="99.34" y="247.34" width="41.31" height="41.31" fill="#fdb863" fill-opacity="0.7" stroke="none"/>
<rect x="152.68" y="247.34" width="41.31" height="41.31" fill="#fdb863" fill-opacity="0.7" stroke="none"/>
<rect x="206.01" y="247.34" width="41.31" height="41.31" fill="#fdb863" fill-opacity="0.7" stroke="none"/>
<rect x="259.34" y="247.34" width="41.31" height="41.31" fill="#fdb863" fill-opacity="0.7" stroke="none"/>
<rect x="312.68" y="247.34" width="41.31" height="41.31" fill="#fdb863" fill-opacity="0.7" stroke="none"/>
<rect x="46.01" y="215.34" width="41.31" height="41.31" fill="#fdb863" fill-opacity="0.7" stroke="none"/>
<rect x="99.34" y="215.34" width="41.31" height="41.31" fill="#fdb863" fill-opacity="0.7" stroke="none"/>
<rect x="152.68" y="215.34" width="41.31" height="41.31" fill="#fdb863" fill-opacity="0.7" stroke="none"/>
<rect x="206.01" y="215.34" width="41.31" height="41.31" fill="#fdb863" fill-opacity="0.7" stroke="none"/>
<rect x="259.34" y="215.34" width="41.31" height="41.31" fill="#fdb863" fill-opacity="0.7" stroke="none"/>
<rect x="312.68" y="215.34" width="41.31" height="41.31" fill="#fdb863" fill-opacity="0.7" stroke="none"/>
<rect x="46.01" y="183.34" width="41.31" height="41.31" fill="#bad7f8" fill-opacity="0.7" stroke="none"/>
<rect x="99.34" y="183.34" width="41.31" height="41.31" fill="#bad7f8" fill-opacity="0.7" stroke="none"/>
<rect x="152.68" y="183.34" width="41.31" height="41.31" fill="#bad7f8" fill-opacity="0.7" stroke="none"/>
<rect x="206.01" y="183.34" width="41.31" height="41.31" fill="#bad7f8" fill-opacity="0.7" stroke="none"/>
<rect x="259.34" y="183.34" width="41.31" height="41.31" fill="#bad7f8" fill-opacity="0.7" stroke="none"/>
<rect x="312.68" y="183.34" width="41.31" height="41.31" fill="#bad7f8" fill-opacity="0.7" stroke="none"/>
<rect x="46.01" y="151.34" width="41.31" height="41.31" fill="#9ec2f0" fill-opacity="0.7" stroke="none"/>
<rect x="99.34" y="151.34" width="41.31" height="41.31" fill="#9ec2f0" fill-opacity="0.7" stroke="none"/>
<rect x="152.68" y="151.34" width="41.31" height="41.31" fill="#9ec2f0" fill-opacity="0.7" stroke="none"/>
<rect x="206.01" y="151.34" width="41.31" height="41.31" fill="#9ec2f0" fill-opacity="0.7" stroke="none"/>
<rect x="259.34" y="151.34" width="41.31" height="41.31" fill="#9ec2f0" fill-opacity="0.7" stroke="none"/>
<rect x="312.68" y="151.34" width="41.31" height="41.31" fill="#9ec2f0" fill-opacity="0.7" stroke="none"/>
<rect x="46.01" y="119.34" width="41.31" height="41.31" fill="#83ade7" fill-opacity="0.7" stroke="none"/>
<rect x="99.34" y="119.34" width="41.31" height="41.31" fill="#83ade7" fill-opacity="0.7" stroke="none"/>
<rect x="152.68" y="119.34" width="41.31" height="41.31" fill="#83ade7" fill-opacity="0.7" stroke="none"/>
<rect x="206.01" y="119.34" width="41.31" height="41.31" fill="#83ade7" fill-opacity="0.7" stroke="none"/>
<rect x="259.34" y="119.34" width="41.31" height="41.31" fill="#83ade7" fill-opacity="0.7" stroke="none"/>
<rect x="312.68" y="119.34" width="41.31" height="41.31" fill="#83ade7" fill-opacity="0.7" stroke="none"/>
<rect x="46.01" y="87.34" width="41.31" height="41.31" fill="#6898df" fill-opacity="0.7" stroke="none"/>
<rect x="99.34" y="87.34" width="41.31" height="41.31" fill="#6898df" fill-opacity="0.7" stroke="none"/>
<rect x="152.68" y="87.34" width="41.31" height="41.31" fill="#6898df" fill-opacity="0.7" stroke="none"/>
<rect x="206.01" y="87.34" width="41.31" height="41.31" fill="#6898df" fill-opacity="0.7" stroke="none"/>
<rect x="259.34" y="87.34" width="41.31" height="41.31" fill="#6898df" fill-opacity="0.7" stroke="none"/>
<rect x="312.68" y="87.34" width="41.31" height="41.31" fill="#6898df" fill-opacity="0.7" stroke="none"/>
<rect x="46.01" y="55.34" width="41.31" height="41.31" fill="#4d84d7" fill-opacity="0.7" stroke="none"/>
<rect x="99.34" y="55.34" width="41.31" height="41.31" fill="#4d84d7" fill-opacity="0.7" stroke="none"/>
<rect x="152.68" y="55.34" width="41.31" height="41.31" fill="#4d84d7" fill-opacity="0.7" stroke="none"/>
<rect x="206.01" y="55.34" width="41.31" height="41.31" fill="#4d84d7" fill-opacity="0.7" stroke="none"/>
<rect x="259.34" y="55.34" width="41.31" height="41.31" fill="#4d84d7" fill-opacity="0.7" stroke="none"/>
<rect x="312.68" y="55.34" width="41.31" height="41.31" fill="#4d84d7" fill-opacity="0.7" stroke="none"/>
<circle cx="82.67" cy="657.33" r="13.59" fill="#0a8030" stroke="#000" stroke-width="0.5"/>
<circle cx="200.00" cy="657.33" r="13.59" fill="#0a8030" stroke="#000" stroke-width="0.5"/>
<circle cx="317.33" cy="657.33" r="13.59" fill="#0a8030" stroke="#000" stroke-width="0.5"/>
<circle cx="82.67" cy="102.67" r="10.16" fill="#0a5080" stroke="#000" stroke-width="0.5"/>
<circle cx="317.33" cy="102.67" r="10.16" fill="#0a5080" stroke="#000" stroke-width="0.5"/>
<text x="40.0" y="744.0" font-size="10" fill="#900">48 concrete fibers cracked (eps &gt; 0.15e-3)</text>
</g></svg>